<?xml version="1.0" encoding="UTF-8" standalone="no"?>
<svg
   xmlns:dc="http://purl.org/dc/elements/1.1/"
   xmlns:cc="http://creativecommons.org/ns#"
   xmlns:rdf="http://www.w3.org/1999/02/22-rdf-syntax-ns#"
   xmlns:svg="http://www.w3.org/2000/svg"
   xmlns="http://www.w3.org/2000/svg"
   viewBox="0 0 60.186668 84.546669"
   height="84.546669"
   width="60.186668"
   xml:space="preserve"
   id="svg2"
   version="1.1"><metadata
     id="metadata8"><rdf:RDF><cc:Work
         rdf:about=""><dc:format>image/svg+xml</dc:format><dc:type
           rdf:resource="http://purl.org/dc/dcmitype/StillImage" /></cc:Work></rdf:RDF></metadata><defs
     id="defs6" /><g
     transform="matrix(1.3333333,0,0,-1.3333333,0,84.546667)"
     id="g10"><g
       transform="scale(0.1)"
       id="g12"><path
         id="path14"
         style="fill:#484961;fill-opacity:1;fill-rule:nonzero;stroke:none"
         d="M 353.797,355.668 H 97.5664 v 77.059 c 25.9996,103.062 128.1176,104.48 128.1176,104.48 0,0 102.113,-1.418 128.113,-104.48 z M 225.684,634.121 c 0,0 -187.0981,6.145 -225.684,-201.394 V 291.375 c 0,0 1.59766,-15.129 44.1445,-45.859 42.5469,-30.727 152.6995,-117.243 181.5395,-117.243 28.836,0 138.988,86.516 181.535,117.243 42.547,30.73 44.144,45.859 44.144,45.859 V 432.727 C 412.773,640.266 225.684,634.121 225.684,634.121" /><path
         id="path16"
         style="fill:#484961;fill-opacity:1;fill-rule:nonzero;stroke:none"
         d="m 225.684,96.4414 c 0,0 -28.996,2.8359 -51.692,18.5936 C 151.301,130.793 0,238.898 0,238.898 V 24.8984 C 0,24.8984 1.28125,0 28.7031,0 56.1211,0 225.684,0 225.684,0 c 0,0 169.558,0 196.976,0 27.422,0 28.703,24.8984 28.703,24.8984 V 238.898 c 0,0 -151.3,-108.105 -173.996,-123.863 C 254.676,99.2773 225.684,96.4414 225.684,96.4414" /></g></g></svg>